<svg width="64" height="64" viewBox="0 0 64 60" fill="none" xmlns="http://www.w3.org/2000/svg">
<path d="M16.3881 47.3257L11.6744 39.1613L18.592 27.2126L22.9878 34.827L48.9374 34.8131L41.5741 47.4384L16.3881 47.3257Z" fill="#FFAD64"/>
<path d="M53.5712 26.7061L48.8575 34.8703L35.0509 34.8541L39.4471 27.2399L26.4603 4.77383L41.0758 4.83796L53.5712 26.7061Z" fill="#ADD4D3"/>
<path d="M17.1146 4.73038H26.542L33.4312 16.6957L24.6388 16.6952L11.6763 39.1752L4.42398 26.4858L17.1146 4.73038Z" fill="#FB8351"/>
<path fill-rule="evenodd" clip-rule="evenodd" d="M27.6913 2.84003L27.6632 2.79126H16.0009L2.18484 26.476L11.6688 43.0702L11.6805 43.05L15.2658 49.26L42.6852 49.3826L52.3143 32.872H52.2503L55.8074 26.711L42.2039 2.90369L27.6913 2.84003ZM36.7127 18.6348H36.7855L29.93 6.7283L39.9475 6.77223L51.3348 26.701L47.7706 32.8747L38.43 32.8796L41.6867 27.2391L36.7127 18.6348ZM25.3164 6.66961L29.9909 14.7562L23.5187 14.7561L12.4382 33.9719L11.6824 35.2776L6.66334 26.4957L18.2285 6.66961H25.3164ZM20.822 27.1965L25.7591 18.6345L32.233 18.6348L37.2075 27.2403L33.9501 32.882L24.1074 32.8874L20.822 27.1965ZM13.9182 39.1691L15.7965 35.9119L18.5897 31.0871L21.8687 36.767L31.71 36.7616L31.6941 36.7891L45.5306 36.8055L40.4632 45.4944L17.5107 45.3916L13.9182 39.1691Z" fill="#333237"/>
</svg>
