<svg xmlns="http://www.w3.org/2000/svg" version="1.1" xmlns:xlink="http://www.w3.org/1999/xlink" xmlns:svgjs="http://svgjs.dev/svgjs" viewBox="0 0 800 400"><path d="M96.41255950927734,220.6278076171875C101.66666838328044,219.34978103637695,118.09416459401449,215.11211636861165,129.59640502929688,212.55606079101562C141.09864546457928,210.0000052134196,155.56800397237143,206.89835052490236,169.05828857421875,204.4842987060547C182.54857317606607,202.07024688720702,202.44394073486328,199.15545450846355,214.79820251464844,197.30941772460938C227.1524642944336,195.4633809407552,236.57698249816895,193.81914049784342,247.085205078125,192.8251190185547C257.59342765808105,191.83109753926595,270.79970525105796,192.0254088083903,281.1659240722656,191.03138732910156C291.5321428934733,190.03736584981283,303.1838658650716,187.11510124206544,312.5560607910156,186.54708862304688C321.92825571695965,185.97907600402831,329.5665064493815,187.58594296773273,340.3587341308594,187.44393920898438C351.15096181233724,187.30193545023602,370.06727244059243,186.07623163859049,380.7174987792969,185.6502227783203C391.3677251180013,185.22421391805014,396.40508499145506,185.03736203511556,407.6233215332031,184.75335693359375C418.8415580749512,184.46935183207194,437.51122182210287,184.28251520792642,451.56951904296875,183.85650634765625C465.62781626383463,183.43049748738608,486.1883544921875,182.34678217569987,496.4125671386719,182.06277465820312C506.63677978515625,181.77876714070638,513.019430287679,182.06277465820312,516.1434936523438,182.06277465820312" fill="none" stroke-width="9" stroke="url(&quot;#SvgjsLinearGradient1001&quot;)" stroke-linecap="butt" stroke-dasharray="125 0"></path><defs><linearGradient id="SvgjsLinearGradient1001"><stop stop-color="#fecd70" offset="0"></stop><stop stop-color="#f57328" offset="1"></stop></linearGradient></defs></svg>